# xmcd
#
# Track frame offsets:
#	150
#	18088
#	34522
#	57364
#	81237
#	100180
#	110512
#	144061
#
# Disc length: 2176 seconds
# Revision: 0
# Processed by: cddbd v1.5.2PL0 Copyright (c) Steve Scherf et al.
# Submitted via: dBpowerAMP V12.0
#
DISCID=57087e08
DTITLE=Catfish Voodoo - Live @ Way Out West Blues Club
DYEAR=2015
DGENRE=Blues
TTITLE0=Juke
TTITLE1=I'm ready
TTITLE2=Crosseyed Cat
TTITLE3=Smokestack Lightnin'
TTITLE4=Mambo Avenue
TTITLE5=Hoochie Koochie Man
TTITLE6=Devil Woman Blues
TTITLE7=Help Me
EXTD=
EXTT0=
EXTT1=
EXTT2=
EXTT3=
EXTT4=
EXTT5=
EXTT6=
EXTT7=
PLAYORDER=
